<?xml version="1.0" encoding="UTF-8"?>
<svg version="1.1" xmlns="http://www.w3.org/2000/svg" width="3000" height="2000">
<path d="M0 0 C34.216875 -0.04125 68.43375 -0.0825 103.6875 -0.125 C119.84593872 -0.15231201 119.84593872 -0.15231201 136.33081055 -0.18017578 C149.56604004 -0.18920898 149.56604004 -0.18920898 155.77766418 -0.19088745 C160.08176265 -0.19273784 164.38581092 -0.20018088 168.68989563 -0.21115112 C174.20492108 -0.22501841 179.71987507 -0.22895511 185.23491633 -0.22614455 C187.24336926 -0.22673099 189.25182507 -0.23060761 191.26026285 -0.23843026 C219.40860979 -0.34284209 249.43721139 0.62475262 271.88671875 19.8671875 C275.52757318 23.54169123 278.33995263 27.57847354 281 32 C281.58201172 32.95132813 281.58201172 32.95132813 282.17578125 33.921875 C290.439598 48.85417709 290.26265274 65.56058751 290.35009766 82.06640625 C290.3665961 84.34125034 290.39380431 86.61604392 290.43212891 88.890625 C290.81426211 111.75215905 287.14224173 127.87646698 271 145 C271.50789063 145.31710937 272.01578125 145.63421875 272.5390625 145.9609375 C280.42919168 151.30967676 285.08974643 158.62239157 287 168 C287.81545498 173.58816186 288.14033098 178.97735343 288.11352539 184.61914062 C288.11367142 185.43960876 288.11381744 186.2600769 288.1139679 187.10540771 C288.11327706 189.7890497 288.10552389 192.4726203 288.09765625 195.15625 C288.09578912 197.02811648 288.09436661 198.89998344 288.09336853 200.77185059 C288.08956659 205.67742279 288.07975632 210.58296497 288.06866455 215.48852539 C288.05659284 221.38573588 288.05203712 227.28295645 288.04621124 233.18017578 C288.03654317 242.12013801 288.0173704 251.06003448 288 260 C267.21 260 246.42 260 225 260 C224.96132812 250.01685547 224.96132812 250.01685547 224.921875 239.83203125 C224.89670946 235.61649786 224.87037882 231.40103643 224.83984375 227.18554688 C224.79148488 220.49405641 224.7474493 213.80273248 224.72900391 207.11108398 C224.71386345 201.71628386 224.67946402 196.32191925 224.63169098 190.92731285 C224.61685028 188.86887077 224.60895745 186.81036652 224.60811615 184.75187111 C224.60575286 181.86902015 224.57872442 178.987379 224.54589844 176.10473633 C224.5509288 175.25309402 224.55595917 174.40145172 224.56114197 173.52400208 C224.49185879 169.59299023 224.29350437 167.48432338 222.21588135 164.05595398 C213.99703776 156.43029108 199.23967477 158.84279374 188.7644043 158.79467773 C187.39304327 158.7850683 186.02168502 158.77505659 184.65032959 158.76467896 C180.97148264 158.73795514 177.29262328 158.71677238 173.61373496 158.69667697 C169.75270642 158.67461349 165.89171466 158.64732569 162.03071594 158.62062073 C154.73902146 158.57096617 147.44730627 158.52592784 140.15557176 158.48259836 C130.28835621 158.4236933 120.42118922 158.35755508 110.55401707 158.29184818 C95.03604423 158.18870028 79.51802887 158.09512813 64 158 C64 191.66 64 225.32 64 260 C42.88 260 21.76 260 0 260 C0 174.2 0 88.4 0 0 Z M64 59 C64 73.19 64 87.38 64 102 C82.86333014 102.04520578 101.72661619 102.08202346 120.5899868 102.10362434 C129.34923624 102.11392209 138.10844954 102.12795364 146.86767578 102.15087891 C154.50521864 102.17085883 162.14273533 102.18372734 169.7803036 102.18817699 C173.82160028 102.19077659 177.86282209 102.19685531 181.9040947 102.21146011 C185.71419494 102.22511687 189.52419004 102.22920641 193.33431244 102.22621536 C194.72659249 102.22676193 196.11887635 102.23069091 197.5111351 102.23841095 C211.07132921 102.72756752 211.07132921 102.72756752 223.0625 97.5625 C227.04168019 92.2997133 226.25648108 86.51763766 226.3125 80.1875 C226.34150391 79.10662109 226.37050781 78.02574219 226.40039062 76.91210938 C226.43804435 72.19380761 226.34509385 68.77965647 224.41796875 64.42578125 C218.56423804 58.55313703 212.47610396 58.65228478 204.54640198 58.6267395 C203.14559721 58.63735418 201.74479462 58.64825857 200.34399414 58.65942383 C198.85529599 58.66027089 197.36659659 58.65979342 195.87789917 58.65809631 C191.85147181 58.657238 187.82531431 58.67483705 183.79894948 58.69581819 C179.58557976 58.71461241 175.37220339 58.71633759 171.15879822 58.71989441 C163.18683764 58.72920682 155.21500096 58.75380969 147.24309486 58.78394288 C138.16452542 58.81751194 129.08594996 58.83397919 120.00733387 58.84902918 C101.33813814 58.88036001 82.66911217 58.935362 64 59 Z " fill="#221E1F" transform="translate(1077,870)"/>
<path d="M0 0 C84.48 0 168.96 0 256 0 C256 19.47 256 38.94 256 59 C192.64 59 129.28 59 64 59 C64 73.19 64 87.38 64 102 C107.89 102 151.78 102 197 102 C197 120.48 197 138.96 197 158 C153.11 158 109.22 158 64 158 C64 172.52 64 187.04 64 202 C127.69 202 191.38 202 257 202 C257 221.14 257 240.28 257 260 C172.19 260 87.38 260 0 260 C0 174.2 0 88.4 0 0 Z " fill="#221E1F" transform="translate(2113,870)"/>
<path d="M0 0 C34.588125 -0.061875 69.17625 -0.12375 104.8125 -0.1875 C121.15487183 -0.22846802 121.15487183 -0.22846802 137.82739258 -0.27026367 C151.1986084 -0.28381348 151.1986084 -0.28381348 157.47123718 -0.28633118 C161.82378285 -0.28911022 166.17621718 -0.3002888 170.5287323 -0.31672668 C176.10180199 -0.33749135 181.67471262 -0.3434392 187.2478174 -0.33921683 C189.27990817 -0.34009816 191.31200522 -0.34593512 193.34406245 -0.35764539 C221.47321845 -0.51205575 247.22872542 3.6153312 268 24 C268.62777344 24.60328125 269.25554688 25.2065625 269.90234375 25.828125 C289.75111069 46.53205424 291.17700994 78.36650162 291.11352539 105.26489258 C291.11324268 106.96136982 291.11340289 108.65784717 291.1139679 110.35432434 C291.11425259 114.91953556 291.10840922 119.48472004 291.10139394 124.04992509 C291.09510547 128.83582816 291.09455228 133.62173198 291.09336853 138.40763855 C291.09027132 147.45244952 291.0820798 156.49724827 291.07201904 165.54205388 C291.06080769 175.84687346 291.05533484 186.15169365 291.05032361 196.45651782 C291.03989571 217.63768686 291.02157042 238.81883917 291 260 C269.55 260 248.1 260 226 260 C225.97812622 251.70983765 225.97812622 251.70983765 225.95581055 243.25219727 C225.90549224 224.99955723 225.83905211 206.74700225 225.76428509 188.49444675 C225.71934444 177.42705297 225.67992572 166.35969125 225.65356445 155.29223633 C225.63057042 145.64438356 225.59715657 135.99663238 225.55129844 126.3488602 C225.52738529 121.24176497 225.50864397 116.13477023 225.50238609 111.02762032 C225.49632667 106.21690768 225.47629565 101.4064521 225.44572449 96.59583473 C225.43695804 94.83388302 225.43321879 93.0718977 225.43499184 91.30992508 C226.03091795 77.53733859 226.03091795 77.53733859 220.6191206 65.43740177 C215.87473433 61.24687192 212.15321329 59.75332142 205.90032959 59.7215271 C204.65213314 59.71037558 203.40393669 59.69922405 202.11791611 59.6877346 C200.73193134 59.68536718 199.34594625 59.68317988 197.95996094 59.68115234 C196.47764663 59.67174118 194.99533762 59.66146198 193.51303482 59.6503849 C189.54358217 59.62311887 185.5741666 59.6077333 181.60464478 59.59480286 C177.87977176 59.58087097 174.15499963 59.5562325 170.43017578 59.5324707 C159.53684102 59.46921981 148.64341193 59.42316054 137.75 59.375 C113.4125 59.25125 89.075 59.1275 64 59 C64 125.33 64 191.66 64 260 C42.88 260 21.76 260 0 260 C0 174.2 0 88.4 0 0 Z " fill="#231E1F" transform="translate(1779,870)"/>
<path d="M0 0 C94.71 0 189.42 0 287 0 C287 19.47 287 38.94 287 59 C213.41 59 139.82 59 64 59 C64 73.19 64 87.38 64 102 C127.36 102 190.72 102 256 102 C256 120.48 256 138.96 256 158 C192.64 158 129.28 158 64 158 C64 191.66 64 225.32 64 260 C42.88 260 21.76 260 0 260 C0 174.2 0 88.4 0 0 Z " fill="#231E20" transform="translate(346,870)"/>
<path d="M0 0 C78.87 0 157.74 0 239 0 C239 19.47 239 38.94 239 59 C201.05 59 163.1 59 124 59 C124 125.33 124 191.66 124 260 C102.88 260 81.76 260 60 260 C60 193.67 60 127.34 60 59 C40.2 59 20.4 59 0 59 C0 39.53 0 20.06 0 0 Z " fill="#221E20" transform="translate(1399,870)"/>
<path d="M0 0 C30.30277161 -0.02202655 60.60553776 -0.04049796 90.908315 -0.05106533 C94.48208957 -0.05231611 98.05586413 -0.05361042 101.62963867 -0.05493164 C102.34114268 -0.05519395 103.05264668 -0.05545626 103.78571142 -0.05572652 C115.32132168 -0.0600833 126.85692699 -0.06797089 138.39253431 -0.0771528 C150.22037862 -0.08648911 162.04822033 -0.09205556 173.87606817 -0.09408849 C180.52326311 -0.09534006 187.1704488 -0.09848474 193.8176403 -0.10573006 C200.06621402 -0.1124861 206.31477175 -0.11461781 212.56334877 -0.11310768 C214.86404889 -0.1133842 217.1647495 -0.11539177 219.46544647 -0.11920547 C222.59176605 -0.12413624 225.71802427 -0.12300058 228.84434509 -0.12025452 C230.22904437 -0.12462378 230.22904437 -0.12462378 231.64171737 -0.12908131 C237.88587879 -0.11412121 237.88587879 -0.11412121 239 1 C239.09893778 2.77446009 239.12799092 4.55286251 239.12939453 6.33007812 C239.13254669 7.46795776 239.13569885 8.6058374 239.13894653 9.77819824 C239.13591019 11.63595886 239.13591019 11.63595886 239.1328125 13.53125 C239.13376923 14.79263794 239.13472595 16.05402588 239.13571167 17.3536377 C239.13639375 20.02697138 239.13503529 22.70021437 239.13037109 25.37353516 C239.12467381 28.80706691 239.12795301 32.2405205 239.13394356 35.67404938 C239.13841762 38.93895243 239.13528883 42.20384593 239.1328125 45.46875 C239.13483673 46.70725708 239.13686096 47.94576416 239.13894653 49.22180176 C239.13421829 50.92862122 239.13421829 50.92862122 239.12939453 52.66992188 C239.12859894 53.67728394 239.12780334 54.684646 239.12698364 55.72253418 C239 58 239 58 238 59 C236.51983606 59.09568576 235.03511727 59.12188268 233.55186462 59.12025452 C232.59328269 59.12163201 231.63470076 59.12300951 230.64707088 59.12442875 C229.58267568 59.12083064 228.51828047 59.11723253 227.42163086 59.11352539 C226.29152116 59.11364593 225.16141146 59.11376646 223.99705601 59.11389065 C220.31963226 59.1131411 216.64225849 59.10551097 212.96484375 59.09765625 C210.70218938 59.09618696 208.43953466 59.09516617 206.17687988 59.09460449 C197.76374809 59.0893501 189.35062356 59.07538904 180.9375 59.0625 C162.148125 59.041875 143.35875 59.02125 124 59 C124 125.33 124 191.66 124 260 C102.88 260 81.76 260 60 260 C60 193.67 60 127.34 60 59 C40.2 59 20.4 59 0 59 C0 39.53 0 20.06 0 0 Z " fill="#231E1F" transform="translate(2399,870)"/>
<path d="M0 0 C21.12 0 42.24 0 64 0 C64 85.8 64 171.6 64 260 C42.88 260 21.76 260 0 260 C0 174.2 0 88.4 0 0 Z " fill="#221E1F" transform="translate(1668,870)"/>
<path d="M0 0 C35.31 0 70.62 0 107 0 C107 23.1 107 46.2 107 70 C71.69 70 36.38 70 0 70 C0 46.9 0 23.8 0 0 Z " fill="#ED2D23" transform="translate(925,965)"/>
<path d="M0 0 C34.98 0 69.96 0 106 0 C106 23.1 106 46.2 106 70 C71.02 70 36.04 70 0 70 C0 46.9 0 23.8 0 0 Z " fill="#EE2D23" transform="translate(660,965)"/>
<path d="M0 0 C34.32 0 68.64 0 104 0 C104 23.1 104 46.2 104 70 C69.68 70 35.36 70 0 70 C0 46.9 0 23.8 0 0 Z " fill="#ED2D23" transform="translate(793,1063)"/>
<path d="M0 0 C34.32 0 68.64 0 104 0 C104 23.1 104 46.2 104 70 C69.68 70 35.36 70 0 70 C0 46.9 0 23.8 0 0 Z " fill="#ED2D23" transform="translate(793,867)"/>
<path d="M0 0 C35.31 0 70.62 0 107 0 C107 6.15820698 106.83789587 11.54227914 105.75 17.5 C105.61505127 18.24338623 105.48010254 18.98677246 105.34106445 19.75268555 C104.27046603 25.28764909 102.65699414 30.01813598 100 35 C99.5565625 35.95261719 99.113125 36.90523437 98.65625 37.88671875 C95.7957111 43.95014829 92.6544768 49.13561833 88.3203125 54.2578125 C86.79866823 55.90133515 86.79866823 55.90133515 87 58 C85.06640625 59.4375 85.06640625 59.4375 82.5625 61 C79.18993349 62.9529916 79.18993349 62.9529916 77 66 C69.02405923 70.85560341 60.36329487 70.52603428 51.3671875 70.390625 C50.06015869 70.38659668 48.75312988 70.38256836 47.40649414 70.37841797 C42.56251827 70.35761993 37.71874381 70.30177534 32.875 70.25 C22.02625 70.1675 11.1775 70.085 0 70 C0 46.9 0 23.8 0 0 Z " fill="#ED2D23" transform="translate(925,1063)"/>
<path d="M0 0 C34.98 0 69.96 0 106 0 C106 23.1 106 46.2 106 70 C94.841875 70.020625 83.68375 70.04125 72.1875 70.0625 C68.66473389 70.071604 65.14196777 70.08070801 61.51245117 70.09008789 C57.20959473 70.09460449 57.20959473 70.09460449 55.19502258 70.09544373 C53.78848454 70.09697896 52.3819478 70.10049529 50.97541809 70.10557556 C48.84451003 70.11288725 46.71368238 70.11390625 44.58276367 70.11352539 C43.38141281 70.115746 42.18006195 70.11796661 40.94230652 70.12025452 C38 70 38 70 35 69 C35 68.34 35 67.68 35 67 C34.443125 66.9175 33.88625 66.835 33.3125 66.75 C30.30743682 65.77538491 28.42745178 63.99175531 26 62 C24.515 61.505 24.515 61.505 23 61 C21.62131719 59.37064759 20.28725907 57.70250393 19 56 C18.34 55.34 17.68 54.68 17 54 C15.76272339 52.18607411 14.5579195 50.34983297 13.375 48.5 C12.74335937 47.5203125 12.11171875 46.540625 11.4609375 45.53125 C10 43 10 43 10 41 C9.34 41 8.68 41 8 41 C6.06446047 35.74358553 4.1380136 30.48329689 2.3125 25.1875 C2.08175781 24.52105469 1.85101562 23.85460938 1.61328125 23.16796875 C-0.64532201 15.18373431 0 8.67629405 0 0 Z " fill="#ED2D23" transform="translate(660,1063)"/>
<path d="M0 0 C10.35375 -0.0825 20.7075 -0.165 31.375 -0.25 C36.25031494 -0.30462402 36.25031494 -0.30462402 41.22412109 -0.36035156 C43.82388653 -0.372043 46.42365932 -0.38223375 49.0234375 -0.390625 C49.68566315 -0.40107849 50.34788879 -0.41153198 51.03018188 -0.42230225 C64.19963411 -0.61950973 73.24942087 2.07196533 83 11 C96.78188475 24.41002951 104.33529906 42.08062336 107 61 C107 63.97 107 66.94 107 70 C71.69 70 36.38 70 0 70 C0 46.9 0 23.8 0 0 Z " fill="#ED2D23" transform="translate(925,867)"/>
<path d="M0 0 C1.31919434 0.0002417 2.63838867 0.0004834 3.99755859 0.00073242 C5.39453319 0.01080257 6.79150591 0.02113567 8.18847656 0.03173828 C9.46223145 0.03375244 10.73598633 0.0357666 12.04833984 0.0378418 C16.80863036 0.04830957 21.56886956 0.07623211 26.32910156 0.10205078 C36.97160156 0.14330078 47.61410156 0.18455078 58.57910156 0.22705078 C58.57910156 23.32705078 58.57910156 46.42705078 58.57910156 70.22705078 C23.59910156 70.22705078 -11.38089844 70.22705078 -47.42089844 70.22705078 C-47.42089844 48.32867858 -40.84391001 28.37606735 -25.73339844 12.03955078 C-21.21865342 7.68138652 -16.02322052 4.95861776 -10.42089844 2.22705078 C-9.8414447 1.87643585 -9.26199097 1.52582092 -8.66497803 1.1645813 C-5.67912742 -0.08284596 -3.233859 -0.01253434 0 0 Z " fill="#ED2D23" transform="translate(707.4208984375,866.77294921875)"/>
<path d="M0 0 C7.76435618 8.19663297 9.27559274 16.62442808 9.16015625 27.66015625 C8.53590136 34.19305623 6.31008377 38.2745223 2.3125 43.29296875 C0.70894686 45.25194922 0.70894686 45.25194922 -0.86328125 47.86328125 C-6.6779457 53.6779457 -13.674909 55.50976463 -21.73828125 55.73828125 C-28.27118854 55.51874363 -33.40869369 54.18565171 -39.17578125 51.17578125 C-39.8409375 50.89734375 -40.50609375 50.61890625 -41.19140625 50.33203125 C-46.79718758 47.06567047 -51.85140738 39.75570817 -53.7734375 33.5625 C-55.59328932 22.76706835 -54.71674529 13.22123243 -48.7734375 4 C-43.46831366 -2.88758131 -35.85695655 -6.61356996 -27.55078125 -8.76171875 C-17.01572153 -8.95681245 -8.31576749 -6.97210667 0 0 Z M-43.86328125 5.98828125 C-48.91800172 12.95559866 -50.88740299 20.1550868 -49.87890625 28.6875 C-47.98796407 36.82621735 -42.77821747 42.90518555 -36.04296875 47.69140625 C-29.10153058 51.3286174 -20.84697474 51.54424357 -13.40234375 49.36328125 C-6.15436097 46.15186734 -0.50480994 40.88711706 3.01953125 33.7578125 C5.53656491 26.62621712 5.68192515 19.40990429 2.62109375 12.43359375 C-2.28234124 3.73644852 -8.58580039 -1.12567648 -18.17578125 -3.82421875 C-28.17530347 -5.31175098 -36.99071242 -1.20394195 -43.86328125 5.98828125 Z " fill="#231E1E" transform="translate(2645.17578125,1074.82421875)"/>
<path d="M0 0 C5.56875 -0.12375 5.56875 -0.12375 11.25 -0.25 C12.4143457 -0.28641602 13.57869141 -0.32283203 14.77832031 -0.36035156 C15.70225586 -0.3703418 16.62619141 -0.38033203 17.578125 -0.390625 C18.99206543 -0.4220459 18.99206543 -0.4220459 20.43457031 -0.45410156 C23.79736317 0.14113965 24.9303381 1.33094709 27 4 C28.17081766 8.83937965 28.46082859 10.87798256 26.5625 15.5 C25.7890625 16.7375 25.7890625 16.7375 25 18 C25.66 18.66 26.32 19.32 27 20 C27.4657363 22.55867474 27.83484248 25.04687908 28.125 27.625 C28.21136719 28.33140625 28.29773437 29.0378125 28.38671875 29.765625 C28.59881183 31.50950141 28.80040991 33.2546484 29 35 C26.03 35.495 26.03 35.495 23 36 C22.66468585 34.04200486 22.33180857 32.08359226 22 30.125 C21.814375 29.03445313 21.62875 27.94390625 21.4375 26.8203125 C21 24 21 24 21 22 C17.83754459 20.9458482 15.13051782 20.68724328 11.8125 20.4375 C9.894375 20.293125 7.97625 20.14875 6 20 C6 24.95 6 29.9 6 35 C4.02 35 2.04 35 0 35 C0 23.45 0 11.9 0 0 Z M6 4 C6 7.63 6 11.26 6 15 C8.29141286 15.05384521 10.58318188 15.09272087 12.875 15.125 C14.15117187 15.14820313 15.42734375 15.17140625 16.7421875 15.1953125 C20.08593338 15.35641524 20.08593338 15.35641524 22 13 C22.58345476 10.04253508 22.58345476 10.04253508 22 7 C19.58009553 4.49665055 17.65182721 4.04119694 14.21875 3.82421875 C11.47856062 3.81362523 8.73842166 3.9010209 6 4 Z " fill="#231E1F" transform="translate(2610,1080)"/>
</svg>
