<?xml version="1.0" encoding="UTF-8"?>
<svg version="1.1" xmlns="http://www.w3.org/2000/svg" width="340" height="372">
<path d="M0 0 C4.96666784 1.81043053 8.99661946 4.9964589 13.25 8.0625 C47.91538856 32.70868043 90.56522773 48.31864069 132.93334961 51.26660156 C141.04181541 51.85978394 148.54822098 52.57464037 155 58 C159.27657828 64.04959346 160.16642158 70.00335909 161.1875 77.25 C161.4340332 78.85294922 161.4340332 78.85294922 161.68554688 80.48828125 C163.25709447 90.96102353 164.15331802 101.32420999 164.203125 111.9140625 C164.21018463 112.91874573 164.21724426 113.92342896 164.22451782 114.95855713 C164.45280766 156.97280746 164.45280766 156.97280746 161 175 C160.70198486 176.59980713 160.70198486 176.59980713 160.39794922 178.23193359 C153.4061838 214.75146936 139.79669563 250.34513879 117 280 C116.34644531 280.85335938 115.69289063 281.70671875 115.01953125 282.5859375 C113.05232331 285.09260659 111.03918915 287.55151123 109 290 C108.56461914 290.52561523 108.12923828 291.05123047 107.68066406 291.59277344 C97.43576178 303.91900109 86.68253797 315.13044574 74 325 C72.73303231 326.00776145 71.4661081 327.01557757 70.19921875 328.0234375 C51.23927132 342.95967273 30.49286286 355.02727562 8.8125 365.5625 C7.50273193 366.20759521 7.50273193 366.20759521 6.16650391 366.86572266 C4.91812744 367.46006104 4.91812744 367.46006104 3.64453125 368.06640625 C2.91596924 368.41646729 2.18740723 368.76652832 1.43676758 369.12719727 C-3.03956249 370.7305316 -6.57855 371.45404543 -11.17114258 369.98706055 C-12.23486084 369.45894775 -13.2985791 368.93083496 -14.39453125 368.38671875 C-14.9795491 368.10185608 -15.56456696 367.81699341 -16.16731262 367.52349854 C-18.05858458 366.59615631 -19.93543035 365.64322116 -21.8125 364.6875 C-23.12308392 364.03433144 -24.43412288 363.38207515 -25.74560547 362.73071289 C-29.51257771 360.84994351 -33.25809309 358.93016249 -37 357 C-37.92506348 356.52498047 -38.85012695 356.04996094 -39.80322266 355.56054688 C-60.81357145 344.65724175 -80.13560119 330.60882413 -97.3828125 314.4296875 C-99.48061379 312.48217645 -101.60309773 310.62911965 -103.8125 308.8125 C-106.91549154 306.18804209 -109.51781551 303.26269141 -112.140625 300.1640625 C-113.38795401 298.71233924 -114.6703413 297.29007162 -115.984375 295.8984375 C-131.60186062 279.3119838 -143.30623786 259.49727983 -153 239 C-153.38607422 238.19788086 -153.77214844 237.39576172 -154.16992188 236.56933594 C-163.25052931 217.25356646 -169.38842232 196.00023996 -173 175 C-173.16081055 174.13487793 -173.32162109 173.26975586 -173.48730469 172.37841797 C-179.21576883 140.54114974 -182.77384367 91.20803032 -169 61 C-167.23828125 58.66015625 -167.23828125 58.66015625 -165.3125 57.0625 C-164.68988281 56.51722656 -164.06726563 55.97195312 -163.42578125 55.41015625 C-157.03229634 51.69349272 -149.69587325 51.64540233 -142.5 51.1875 C-99.48694467 47.89190666 -58.77379675 30.71696086 -23.25 6.8125 C-15.35642744 1.55510272 -9.78952484 -1.46074062 0 0 Z " fill="#292A2A" transform="translate(176,0)"/>
<path d="M0 0 C1.59117949 2.38676923 2.50438336 4.22088098 3.5625 6.8125 C6.66886881 13.09452466 12.65849153 16.12489851 18.875 18.875 C26.71833026 21.47388126 34.19336765 20.54188068 41.62890625 17.22265625 C45.23281001 15.36430061 48.65054879 13.28286619 52 11 C49.81686757 19.73252974 43.35374134 26.99837445 36 32 C31.61768019 33.74125646 27.99006361 34.23844095 23.2890625 34.1953125 C22.04511719 34.18886719 20.80117187 34.18242188 19.51953125 34.17578125 C18.23433594 34.15902344 16.94914063 34.14226562 15.625 34.125 C14.31660156 34.11597656 13.00820312 34.10695312 11.66015625 34.09765625 C8.4399163 34.07415085 5.22005293 34.04129087 2 34 C10.14518312 46.91284404 19.57651666 51.34886719 34 55 C51.63688192 58.64663748 67.80108838 55.17750825 83 46 C84.70051183 44.71011045 86.38255163 43.39262929 88 42 C87.58105469 43.0415625 87.16210938 44.083125 86.73046875 45.15625 C85.56242627 48.97312698 85.56242627 48.97312698 87.67578125 51.78125 C88.98095703 53.12703125 88.98095703 53.12703125 90.3125 54.5 C109.90585391 75.98174608 118.73655568 105.41821496 118.25 134.125 C116.77718769 156.95359082 109.48279328 179.4644834 96 198 C95.48050781 198.74378906 94.96101562 199.48757812 94.42578125 200.25390625 C86.56575379 211.00452315 76.41309353 221.11930045 65 228 C64.45746582 228.34337402 63.91493164 228.68674805 63.35595703 229.04052734 C52.21361177 236.06035687 40.63250669 240.39842453 28 244 C26.75992188 244.36222656 25.51984375 244.72445312 24.2421875 245.09765625 C-4.59227526 252.15848711 -35.97848003 245.14768832 -61 230 C-86.98836372 213.02384362 -104.44771281 189.83606487 -113 160 C-113.32871094 158.87207031 -113.65742187 157.74414062 -113.99609375 156.58203125 C-115.75582473 150.07355255 -116.70538453 143.73151709 -117 137 C-117.05285156 135.90429688 -117.10570312 134.80859375 -117.16015625 133.6796875 C-117.87989957 104.70219555 -108.49918059 77.31307716 -90 55 C-88.93924493 53.8941569 -87.8771179 52.78962477 -86.8125 51.6875 C-84.53886909 48.98815078 -84.53886909 48.98815078 -85.6875 45.125 C-86.120625 44.09375 -86.55375 43.0625 -87 42 C-86.57332031 42.36351562 -86.14664063 42.72703125 -85.70703125 43.1015625 C-71.39726687 54.60838334 -54.86656321 57.4005949 -37 56 C-33.14669134 55.38037248 -29.6518247 54.36262116 -26 53 C-24.99195313 52.63648438 -23.98390625 52.27296875 -22.9453125 51.8984375 C-12.52438692 47.87039893 -6.65149798 43.55782706 -1 34 C-1.80630859 34.01571045 -2.61261719 34.0314209 -3.44335938 34.04760742 C-7.1288337 34.11031976 -10.81419535 34.1491062 -14.5 34.1875 C-15.7684375 34.21263672 -17.036875 34.23777344 -18.34375 34.26367188 C-26.57557381 34.327983 -32.44601603 33.7768195 -39.5625 29.4375 C-44.9030721 24.0969279 -48.85212944 18.25832121 -51 11 C-49.91332031 11.72316406 -49.91332031 11.72316406 -48.8046875 12.4609375 C-47.83789062 13.09257813 -46.87109375 13.72421875 -45.875 14.375 C-44.92367187 15.00148438 -43.97234375 15.62796875 -42.9921875 16.2734375 C-36.17028345 20.20983644 -29.73924165 20.91489226 -22 20 C-15.27601422 18.05590853 -9.44275706 15.58927501 -5 10 C-4.443125 9.360625 -3.88625 8.72125 -3.3125 8.0625 C-1.68034473 5.49768458 -0.8582898 2.90498085 0 0 Z " fill="#12A09D" transform="translate(170,52)"/>
<path d="M0 0 C1.59117949 2.38676923 2.50438336 4.22088098 3.5625 6.8125 C6.66886881 13.09452466 12.65849153 16.12489851 18.875 18.875 C26.71833026 21.47388126 34.19336765 20.54188068 41.62890625 17.22265625 C45.23281001 15.36430061 48.65054879 13.28286619 52 11 C49.81686757 19.73252974 43.35374134 26.99837445 36 32 C31.61768019 33.74125646 27.99006361 34.23844095 23.2890625 34.1953125 C22.04511719 34.18886719 20.80117187 34.18242188 19.51953125 34.17578125 C18.23433594 34.15902344 16.94914062 34.14226562 15.625 34.125 C14.31660156 34.11597656 13.00820312 34.10695312 11.66015625 34.09765625 C8.4399163 34.07415085 5.22005293 34.04129087 2 34 C10.14518312 46.91284404 19.57651666 51.34886719 34 55 C51.63688192 58.64663748 67.80108838 55.17750825 83 46 C84.70051183 44.71011045 86.38255163 43.39262929 88 42 C83.22512892 55.31685151 72.52308024 64.63991288 60.1875 70.7734375 C51.13524958 74.25677896 42.03000053 74.40737503 32.4375 74.625 C31.03318119 74.6632657 29.62888369 74.70232212 28.22460938 74.7421875 C24.81653396 74.83588029 21.40845577 74.92160074 18 75 C33.96328757 83.73591033 49.97225369 92.38293209 66 101 C66 111.89 66 122.78 66 134 C62.37 132.02 58.74 130.04 55 128 C52.4321875 126.6078125 52.4321875 126.6078125 49.8125 125.1875 C47.19006307 123.43765329 46.16807802 122.72084165 45.4453125 119.62109375 C45.43817619 117.34104243 45.59653332 115.24148156 46 113 C45.29746094 112.73590332 44.59492188 112.47180664 43.87109375 112.19970703 C40.80297497 110.91767168 37.97024107 109.41760377 35.0625 107.8046875 C33.34740234 106.85335937 33.34740234 106.85335937 31.59765625 105.8828125 C30.70844482 105.3863623 30.70844482 105.3863623 29.80126953 104.87988281 C28.03528281 103.89468339 26.26594114 102.91574292 24.49609375 101.9375 C23.33042759 101.28960478 22.16506275 100.64116716 21 99.9921875 C20.42330566 99.67239929 19.84661133 99.35261108 19.25244141 99.02313232 C16.23191579 97.32825138 13.29203026 95.56374163 10.40234375 93.65332031 C9.82033203 93.27370148 9.23832031 92.89408264 8.63867188 92.50296021 C7.02899183 91.44305589 5.43391637 90.3610677 3.83984375 89.27783203 C1.10263213 87.69633468 1.10263213 87.69633468 -1.56713867 88.62597656 C-2.77140503 89.30611816 -2.77140503 89.30611816 -4 90 C-4.79317627 90.40814941 -5.58635254 90.81629883 -6.40356445 91.23681641 C-7.215271 91.68718262 -8.02697754 92.13754883 -8.86328125 92.6015625 C-9.74951172 93.09140625 -10.63574219 93.58125 -11.54882812 94.0859375 C-12.46083984 94.59382813 -13.37285156 95.10171875 -14.3125 95.625 C-15.24384766 96.140625 -16.17519531 96.65625 -17.13476562 97.1875 C-19.42463469 98.45573517 -21.71297715 99.72664162 -24 101 C-20.51403822 103.91583719 -16.98491483 106.28826156 -13.03515625 108.53125 C-11.90529297 109.17707031 -10.77542969 109.82289063 -9.61132812 110.48828125 C-8.42855643 111.15915576 -7.24561234 111.82972641 -6.0625 112.5 C-3.73929037 113.82015789 -1.41818335 115.14386786 0.90234375 116.46875 C1.92835693 117.05076172 2.95437012 117.63277344 4.01147461 118.23242188 C7.0916422 120.05420223 10.04080279 121.98950039 13 124 C9.64609512 127.77207623 5.94312616 130.0026961 1.5625 132.375 C0.57926758 132.94541016 0.57926758 132.94541016 -0.42382812 133.52734375 C-2.37109375 134.5859375 -2.37109375 134.5859375 -6 136 C-9.51265806 134.9233867 -12.56263325 133.1978699 -15.71875 131.33984375 C-16.637771 130.80133789 -17.55679199 130.26283203 -18.50366211 129.70800781 C-19.49245361 129.12374023 -20.48124512 128.53947266 -21.5 127.9375 C-23.63664586 126.68086564 -25.77336824 125.42436138 -27.91015625 124.16796875 C-29.04727051 123.49813965 -30.18438477 122.82831055 -31.35595703 122.13818359 C-34.55233086 120.25909794 -37.75814287 118.39666603 -40.96676636 116.53858948 C-43.63835359 114.9913091 -46.30755063 113.43993166 -48.9765625 111.88821411 C-50.28302306 111.12988712 -51.59047847 110.37327149 -52.89892578 109.61837769 C-54.73627048 108.55773455 -56.56968057 107.49058111 -58.40234375 106.421875 C-59.98776978 105.50293457 -59.98776978 105.50293457 -61.60522461 104.56542969 C-64 103 -64 103 -65 101 C-49.35418515 92.29511544 -33.69834596 83.60992521 -18 75 C-18.87624023 74.9906543 -19.75248047 74.98130859 -20.65527344 74.97167969 C-23.96591354 74.92716541 -27.27535599 74.86533707 -30.58544922 74.79248047 C-32.00688244 74.76458408 -33.42846176 74.74321696 -34.85009766 74.72900391 C-51.01948928 74.55783886 -64.22776446 70.53240566 -76.25 59.25 C-80.53035932 54.73036593 -84.22839208 49.58079697 -87 44 C-86.67 43.34 -86.34 42.68 -86 42 C-84.6696875 43.299375 -84.6696875 43.299375 -83.3125 44.625 C-70.36973358 55.63678917 -53.31082228 57.27863732 -37 56 C-33.14669134 55.38037248 -29.6518247 54.36262116 -26 53 C-24.99195313 52.63648438 -23.98390625 52.27296875 -22.9453125 51.8984375 C-12.52438692 47.87039893 -6.65149798 43.55782706 -1 34 C-1.80630859 34.01571045 -2.61261719 34.0314209 -3.44335938 34.04760742 C-7.1288337 34.11031976 -10.81419535 34.1491062 -14.5 34.1875 C-15.7684375 34.21263672 -17.036875 34.23777344 -18.34375 34.26367188 C-26.57557381 34.327983 -32.44601603 33.7768195 -39.5625 29.4375 C-44.9030721 24.0969279 -48.85212944 18.25832121 -51 11 C-50.27554688 11.48210938 -49.55109375 11.96421875 -48.8046875 12.4609375 C-47.83789062 13.09257813 -46.87109375 13.72421875 -45.875 14.375 C-44.92367187 15.00148438 -43.97234375 15.62796875 -42.9921875 16.2734375 C-36.17028345 20.20983644 -29.73924165 20.91489226 -22 20 C-15.27601422 18.05590853 -9.44275706 15.58927501 -5 10 C-4.443125 9.360625 -3.88625 8.72125 -3.3125 8.0625 C-1.68034473 5.49768458 -0.8582898 2.90498085 0 0 Z " fill="#0FC3BF" transform="translate(170,52)"/>
<path d="M0 0 C1.19206055 0.70177368 1.19206055 0.70177368 2.40820312 1.41772461 C3.32730469 1.9563916 4.24640625 2.49505859 5.19335938 3.05004883 C6.18207031 3.63415527 7.17078125 4.21826172 8.18945312 4.82006836 C9.21941406 5.4247998 10.249375 6.02953125 11.31054688 6.65258789 C13.55484587 7.97054647 15.79829807 9.28994783 18.04101562 10.6105957 C21.93091774 12.90094781 25.82552765 15.18323048 29.72070312 17.46459961 C31.05989956 18.24901708 32.3990923 19.03344086 33.73828125 19.81787109 C34.71970093 20.39273758 34.71970093 20.39273758 35.72094727 20.97921753 C40.71165333 23.90328044 45.70045627 26.83059054 50.68945312 29.75756836 C49.34591123 33.78819403 47.69096522 34.13793282 43.98632812 36.12866211 C43.10789497 36.60639572 43.10789497 36.60639572 42.2117157 37.09378052 C40.94966768 37.77887363 39.68530396 38.45971437 38.41891479 39.13674927 C35.75958633 40.55855911 33.11132627 42.00040535 30.46238708 43.44145203 C29.12405344 44.16930696 27.78515264 44.89611998 26.44569397 45.62190247 C20.62792697 48.7769565 14.86662216 52.02505336 9.12695312 55.32006836 C8.28165039 55.80161377 7.43634766 56.28315918 6.56542969 56.77929688 C2.97330569 58.83281119 -0.59012512 60.90990007 -4.08789062 63.12084961 C-5.15136719 63.7847168 -6.21484375 64.44858398 -7.31054688 65.13256836 C-8.17679687 65.69717773 -9.04304688 66.26178711 -9.93554688 66.84350586 C-12.31054688 67.75756836 -12.31054688 67.75756836 -14.62353516 66.98974609 C-17.3655567 65.73234261 -20.02131453 64.38632295 -22.67773438 62.95678711 C-23.71720215 62.39805908 -24.75666992 61.83933105 -25.82763672 61.26367188 C-26.93574707 60.66353271 -28.04385742 60.06339355 -29.18554688 59.44506836 C-30.33361816 58.82494873 -31.48168945 58.2048291 -32.66455078 57.56591797 C-43.96523352 51.44780891 -55.16258475 45.14951981 -66.31054688 38.75756836 C-67.01566406 38.35328613 -67.72078125 37.94900391 -68.44726562 37.5324707 C-78.06239169 32.00572355 -78.06239169 32.00572355 -79.31054688 30.75756836 C-79.39894358 28.38188316 -79.42584993 26.03548162 -79.40820312 23.65991211 C-79.40678818 22.95105362 -79.40537323 22.24219513 -79.40391541 21.51185608 C-79.3983013 19.23955124 -79.3857465 16.96734361 -79.37304688 14.69506836 C-79.36803369 13.1579604 -79.36347047 11.62085091 -79.359375 10.08374023 C-79.3483273 6.30831194 -79.33105329 2.53295665 -79.31054688 -1.24243164 C-78.57666748 -0.84193604 -77.84278809 -0.44144043 -77.08666992 -0.02880859 C-76.1125415 0.50268799 -75.13841309 1.03418457 -74.13476562 1.58178711 C-73.17401123 2.10603271 -72.21325684 2.63027832 -71.22338867 3.17041016 C-69.31556387 4.2099516 -67.40453078 5.24363152 -65.48999023 6.27075195 C-63.07919881 7.59413844 -61.19583984 8.74932151 -59.31054688 10.75756836 C-58.57920437 13.89410064 -58.74293169 16.60415068 -59.31054688 19.75756836 C-58.61920654 20.01570313 -57.92786621 20.27383789 -57.21557617 20.53979492 C-53.95114452 21.90822799 -50.9285085 23.52998569 -47.83007812 25.24194336 C-47.2171843 25.58002014 -46.60429047 25.91809692 -45.9728241 26.26641846 C-44.67862226 26.98115101 -43.38520434 27.69730467 -42.0925293 28.41479492 C-40.14827652 29.49356961 -38.20132684 30.56733755 -36.25390625 31.64038086 C-34.98750651 32.34067804 -33.7212291 33.04119651 -32.45507812 33.74194336 C-31.52708908 34.25319763 -31.52708908 34.25319763 -30.58035278 34.77478027 C-26.87741567 36.83075303 -23.31278409 39.03311912 -19.75976562 41.33569336 C-16.93791602 43.01793318 -15.60944947 43.73549913 -12.29492188 43.98022461 C-7.7912591 42.13513763 -3.71049472 39.72483109 0.43945312 37.19506836 C2.14033302 36.16920134 3.84335508 35.14687489 5.54882812 34.12866211 C6.29616211 33.67418701 7.04349609 33.21971191 7.81347656 32.75146484 C9.68945312 31.75756836 9.68945312 31.75756836 11.68945312 31.75756836 C11.68945312 31.09756836 11.68945312 30.43756836 11.68945312 29.75756836 C10.39986694 29.37362915 10.39986694 29.37362915 9.08422852 28.98193359 C5.5410955 27.70406146 2.60053401 26.10421689 -0.62695312 24.16772461 C-1.20589828 23.82253281 -1.78484344 23.477341 -2.3813324 23.12168884 C-4.21520678 22.02655858 -6.04415249 20.92349084 -7.87304688 19.82006836 C-9.10384823 19.08320809 -10.33496547 18.34687516 -11.56640625 17.61108398 C-14.81829338 15.66627122 -18.06486018 13.71271396 -21.31054688 11.75756836 C-22.2630835 11.22703857 -23.21562012 10.69650879 -24.19702148 10.14990234 C-24.89448486 9.69043213 -25.59194824 9.23096191 -26.31054688 8.75756836 C-26.31054688 8.09756836 -26.31054688 7.43756836 -26.31054688 6.75756836 C-23.26397245 5.01960466 -20.19633933 3.32276713 -17.12304688 1.63256836 C-16.25873047 1.13885742 -15.39441406 0.64514648 -14.50390625 0.13647461 C-13.24223633 -0.54995117 -13.24223633 -0.54995117 -11.95507812 -1.25024414 C-11.18526611 -1.67966309 -10.4154541 -2.10908203 -9.62231445 -2.55151367 C-5.78066863 -3.69966635 -3.36664297 -1.81031764 0 0 Z " fill="#FCFDFD" transform="translate(184.310546875,194.242431640625)"/>
<path d="M0 0 C3.91079199 2.23126236 7.69322557 4.62353474 11.45751953 7.09277344 C17.13160541 10.67493481 23.09870291 13.71005188 29.02880859 16.84423828 C34.72130859 19.90705078 34.72130859 19.90705078 40.52880859 23.03173828 C40.52880859 33.92173828 40.52880859 44.81173828 40.52880859 56.03173828 C36.89880859 54.05173828 33.26880859 52.07173828 29.52880859 50.03173828 C27.81693359 49.10361328 26.10505859 48.17548828 24.34130859 47.21923828 C21.71887166 45.46939157 20.69688661 44.75257993 19.97412109 41.65283203 C19.96698478 39.37278071 20.12534191 37.27321984 20.52880859 35.03173828 C19.82626953 34.7676416 19.12373047 34.50354492 18.39990234 34.23144531 C15.33178356 32.94940997 12.49904966 31.44934205 9.59130859 29.83642578 C8.44791016 29.20220703 7.30451172 28.56798828 6.12646484 27.91455078 C5.53365723 27.58358398 4.94084961 27.25261719 4.33007812 26.91162109 C2.5640914 25.92642167 0.79474974 24.9474812 -0.97509766 23.96923828 C-2.14076381 23.32134306 -3.30612866 22.67290544 -4.47119141 22.02392578 C-5.04788574 21.70413757 -5.62458008 21.38434937 -6.21875 21.05487061 C-9.23927562 19.35998966 -12.17916114 17.59547991 -15.06884766 15.68505859 C-15.65085937 15.30543976 -16.23287109 14.92582092 -16.83251953 14.53469849 C-18.44219958 13.47479417 -20.03727504 12.39280598 -21.63134766 11.30957031 C-24.36855928 9.72807296 -24.36855928 9.72807296 -27.03833008 10.65771484 C-27.84117432 11.11114258 -28.64401855 11.56457031 -29.47119141 12.03173828 C-30.66095581 12.6439624 -30.66095581 12.6439624 -31.87475586 13.26855469 C-33.09231567 13.944104 -33.09231567 13.944104 -34.33447266 14.63330078 C-35.22070312 15.12314453 -36.10693359 15.61298828 -37.02001953 16.11767578 C-37.93203125 16.62556641 -38.84404297 17.13345703 -39.78369141 17.65673828 C-40.71503906 18.17236328 -41.64638672 18.68798828 -42.60595703 19.21923828 C-44.89582609 20.48747345 -47.18416855 21.7583799 -49.47119141 23.03173828 C-45.98522962 25.94757548 -42.45610624 28.31999984 -38.50634766 30.56298828 C-37.37648437 31.20880859 -36.24662109 31.85462891 -35.08251953 32.52001953 C-33.89974784 33.19089404 -32.71680374 33.86146469 -31.53369141 34.53173828 C-29.21048177 35.85189617 -26.88937476 37.17560614 -24.56884766 38.50048828 C-23.54283447 39.0825 -22.51682129 39.66451172 -21.4597168 40.26416016 C-18.3795492 42.08594051 -15.43038862 44.02123867 -12.47119141 46.03173828 C-15.82509629 49.80381451 -19.52806525 52.03443438 -23.90869141 54.40673828 C-24.56417969 54.78701172 -25.21966797 55.16728516 -25.89501953 55.55908203 C-27.84228516 56.61767578 -27.84228516 56.61767578 -31.47119141 58.03173828 C-34.98384947 56.95512498 -38.03382465 55.22960818 -41.18994141 53.37158203 C-42.5684729 52.56382324 -42.5684729 52.56382324 -43.97485352 51.73974609 C-45.45804077 50.86334473 -45.45804077 50.86334473 -46.97119141 49.96923828 C-49.10783726 48.71260392 -51.24455964 47.45609966 -53.38134766 46.19970703 C-54.51846191 45.52987793 -55.65557617 44.86004883 -56.82714844 44.16992188 C-60.02352226 42.29083622 -63.22933428 40.42840431 -66.43795776 38.57032776 C-69.109545 37.02304738 -71.77874203 35.47166994 -74.44775391 33.91995239 C-75.75421446 33.1616254 -77.06166988 32.40500977 -78.37011719 31.65011597 C-80.20746188 30.58947283 -82.04087197 29.52231939 -83.87353516 28.45361328 C-84.93048584 27.84098633 -85.98743652 27.22835937 -87.07641602 26.59716797 C-89.47119141 25.03173828 -89.47119141 25.03173828 -90.47119141 23.03173828 C-88.7603514 22.0784383 -87.04938552 21.1253642 -85.33837891 20.17236328 C-84.23405518 19.55627197 -83.12973145 18.94018066 -81.99194336 18.30541992 C-79.53600067 16.93833976 -77.07315658 15.5848892 -74.60473633 14.24047852 C-68.9013484 11.12369867 -63.30214887 7.99689802 -57.90478516 4.36376953 C-40.83468766 -6.80429482 -18.59083786 -9.40577274 0 0 Z " fill="#D6E7E6" transform="translate(195.47119140625,129.96826171875)"/>
</svg>
