<?xml version="1.0" encoding="UTF-8"?>
<svg version="1.1" xmlns="http://www.w3.org/2000/svg" width="188" height="190">
<path d="M0 0 C62.04 0 124.08 0 188 0 C188.0825 19.861875 188.165 39.72375 188.25 60.1875 C188.28641602 66.43840576 188.32283203 72.68931152 188.36035156 79.12963867 C188.37841797 86.81506348 188.37841797 86.81506348 188.3817749 90.42304993 C188.38788158 92.92084104 188.40187539 95.41862101 188.42230225 97.91633606 C188.45182595 101.71941331 188.45561592 105.52177553 188.45410156 109.32495117 C188.468494 110.42111598 188.48288643 111.51728079 188.497715 112.64666271 C188.4413091 123.31655645 186.16897095 133.77379959 179.08422852 142.03637695 C171.63383691 149.05564598 161.54916614 153.57280087 152.625 158.4375 C151.36574464 159.1277687 150.1067162 159.81845151 148.84790039 160.50952148 C146.22943407 161.94650809 143.61000952 163.38172268 140.98974609 164.81542969 C135.08651977 168.04634597 129.19064024 171.29057895 123.29681396 174.53860474 C121.49701709 175.52972487 119.69609132 176.51876744 117.89501953 177.50756836 C116.77337402 178.12510986 115.65172852 178.74265137 114.49609375 179.37890625 C113.41440918 179.97203613 112.33272461 180.56516602 111.21826172 181.17626953 C109.02056136 182.42166641 106.85065371 183.71708436 104.70751953 185.05419922 C103.66063965 185.70533691 102.61375977 186.35647461 101.53515625 187.02734375 C100.61226807 187.621521 99.68937988 188.21569824 98.73852539 188.82788086 C95.29582303 190.30139553 93.57035909 190.01290566 90 189 C87.66772461 187.94702148 87.66772461 187.94702148 85.40234375 186.62109375 C84.53351563 186.12029297 83.6646875 185.61949219 82.76953125 185.10351562 C81.83496094 184.55373047 80.90039062 184.00394531 79.9375 183.4375 C77.87463298 182.24707609 75.81078334 181.05835376 73.74609375 179.87109375 C72.65280762 179.24058105 71.55952148 178.61006836 70.43310547 177.96044922 C65.10368899 174.91712577 59.72525444 171.96478817 54.34481812 169.01290894 C50.67095684 166.9957524 47.00249694 164.96879271 43.33323669 162.94328308 C42.73954788 162.61556412 42.14585907 162.28784515 41.53417969 161.95019531 C40.94697144 161.62603638 40.35976318 161.30187744 39.75476074 160.96789551 C38.03152927 160.017391 36.30727769 159.06873666 34.58300781 158.12011719 C31.42568442 156.3799855 28.27458255 154.62909412 25.125 152.875 C24.19880859 152.36710938 23.27261719 151.85921875 22.31835938 151.3359375 C12.16060803 145.64820183 4.71992736 139.51061371 1.38066101 128.00846863 C-0.23924153 121.80673135 -0.40300113 115.93287932 -0.34057617 109.55200195 C-0.34093778 108.34138942 -0.34129938 107.13077688 -0.34167194 105.88347912 C-0.33944972 102.00157265 -0.31668162 98.12010945 -0.29296875 94.23828125 C-0.28855267 91.8269471 -0.28549536 89.41561007 -0.28381348 87.00427246 C-0.26814549 78.10697085 -0.22626166 69.20973097 -0.1875 60.3125 C-0.125625 40.409375 -0.06375 20.50625 0 0 Z M53 41 C46.83206988 49.09345145 44.99053993 56.87984339 46 67 C48.16962452 76.04226748 54.01021395 83.89701817 61.88378906 88.88769531 C73.12023468 94.79369973 86.89677206 93.44341909 99.19213867 93.43579102 C101.85635197 93.43935757 104.51955977 93.46664604 107.18359375 93.49609375 C107.99509384 93.48791122 108.80659393 93.4797287 109.64268494 93.47129822 C113.62074949 93.52370865 115.54969154 93.71273109 118.98852539 95.90649414 C121.84441309 98.87884965 121.98135185 99.614605 122.1875 103.875 C122.06376059 109.57732453 122.06376059 109.57732453 120 112 C113.23338299 115.99870714 106.18585232 115.38303952 98.53515625 115.29296875 C97.13268998 115.28736563 95.7302178 115.28309892 94.32774353 115.28010559 C90.6566413 115.26871302 86.98590154 115.23929511 83.31494141 115.20599365 C79.56092226 115.17517131 75.80684389 115.16157441 72.05273438 115.14648438 C64.70163943 115.114419 57.35091691 115.06169796 50 115 C50 121.93 50 128.86 50 136 C58.00693707 136.06815753 66.01364327 136.12303387 74.02079391 136.15543652 C77.74004771 136.17099914 81.45909034 136.19206198 85.17822266 136.22631836 C88.77683801 136.25925193 92.37525206 136.27692343 95.97400665 136.28463173 C97.99443713 136.29275785 100.01478821 136.31612094 102.03509521 136.33988953 C113.70957206 136.34198835 124.25018748 135.298589 133 127 C133.55429688 126.48566406 134.10859375 125.97132812 134.6796875 125.44140625 C140.28200104 119.63005116 143.11725113 112.024968 143.5 104 C143.05111844 95.14861664 139.75066705 87.39332773 133.44018555 81.14941406 C122.51961845 71.53013716 110.96773783 72.18231299 97.1875 72.3125 C94.27275924 72.32384892 91.35865474 72.32638921 88.44392395 72.3120575 C86.64304451 72.30474212 84.84201463 72.31262782 83.04130554 72.3384552 C77.59257854 72.33561682 73.83316251 71.56854388 69 69 C66.49404252 66.05822383 66.70492859 62.61656112 66.80859375 58.8984375 C67.04900443 56.5139561 67.58308762 54.93893273 69 53 C72.56371346 50.62419103 74.16609813 50.72953031 78.39916992 50.68115234 C79.04334366 50.67110672 79.6875174 50.6610611 80.35121155 50.65071106 C82.47762165 50.61985295 84.6039057 50.60283707 86.73046875 50.5859375 C88.20592841 50.56722791 89.68137735 50.54765466 91.15681458 50.5272522 C95.03817425 50.47590264 98.91956863 50.43629219 102.80108643 50.39910889 C106.76266077 50.35908684 110.7240904 50.30798632 114.68554688 50.2578125 C122.45693957 50.16101973 130.22838814 50.07764983 138 50 C138 43.4 138 36.8 138 30 C129.28935386 29.90934764 120.57902505 29.8360826 111.86801243 29.79275131 C107.82239202 29.7719462 103.77711328 29.74375974 99.73168945 29.69824219 C95.82184974 29.65452942 91.91233703 29.63080978 88.00227165 29.62049103 C86.51642655 29.61314494 85.03059776 29.59880041 83.54489326 29.57707977 C70.79689933 29.39825262 61.88102921 31.44028952 53 41 Z " fill="#005BB5" transform="translate(0,0)"/>
</svg>
